# xmcd CD database file
#
# Track frame offsets:
#	150
#	23340
#	74305
#	106592
#
# Disc length: 1672 seconds
#
# Revision: 1
# Processed by: cddbd v1.5.1PL0 Copyright (c) Steve Scherf et al.
# Submitted via: CDex 1.51
#
DISCID=21068604
DTITLE=BobDylan - ThingsHaveChanged
DYEAR=1900
DGENRE=
TTITLE0=ThingsHaveChanged[AlbumVersion]
TTITLE1=Highlands[live]
TTITLE2=Blowin'InTheWind[live]
TTITLE3=MakeYouFeelMyLove[live]
EXTD=
EXTT0=
EXTT1=
EXTT2=
EXTT3=
PLAYORDER=
